<svg width="13" height="15" viewBox="0 0 13 15" fill="none" xmlns="http://www.w3.org/2000/svg">
<path id="Vector" d="M6.5 0C8.22391 0 9.87721 0.677294 11.0962 1.88289C12.3152 3.08848 13 4.72361 13 6.42857C13 9.09 10.9489 11.8786 6.93333 14.8571C6.80832 14.9499 6.65627 15 6.5 15C6.34373 15 6.19168 14.9499 6.06667 14.8571C2.05111 11.8786 0 9.09 0 6.42857C0 4.72361 0.684819 3.08848 1.90381 1.88289C3.12279 0.677294 4.77609 0 6.5 0ZM6.5 4.28571C5.92536 4.28571 5.37426 4.51148 4.96794 4.91334C4.56161 5.31521 4.33333 5.86025 4.33333 6.42857C4.33333 6.99689 4.56161 7.54194 4.96794 7.9438C5.37426 8.34566 5.92536 8.57143 6.5 8.57143C7.07464 8.57143 7.62574 8.34566 8.03206 7.9438C8.43839 7.54194 8.66667 6.99689 8.66667 6.42857C8.66667 5.86025 8.43839 5.31521 8.03206 4.91334C7.62574 4.51148 7.07464 4.28571 6.5 4.28571Z" fill="#F8F8F8"/>
</svg>
